HIERARCHY
ROOT hip
{
  OFFSET 0 0 0
  CHANNELS 6 Xposition Yposition Zposition Zrotation Yrotation Xrotation
  JOINT abdomen
  {
    OFFSET 0 20.6881 -0.73152
    CHANNELS 3 Zrotation Xrotation Yrotation
    JOINT chest
    {
      OFFSET 0 11.7043 -0.48768
      CHANNELS 3 Zrotation Xrotation Yrotation
      JOINT neck
      {
        OFFSET 0 22.1894 -2.19456
        CHANNELS 3 Zrotation Xrotation Yrotation
        JOINT head
        {
          OFFSET -0.24384 7.07133 1.2192
          CHANNELS 3 Zrotation Xrotation Yrotation
          JOINT leftEye
          {
            OFFSET 4.14528 8.04674 8.04672
            CHANNELS 3 Zrotation Xrotation Yrotation
            End Site
            {
              OFFSET 1 0 0
            }
          }
          JOINT rightEye
          {
            OFFSET -3.6576 8.04674 8.04672
            CHANNELS 3 Zrotation Xrotation Yrotation
            End Site
            {
              OFFSET 1 0 0
            }
          }
        }
      }
      JOINT rCollar
      {
        OFFSET -2.68224 19.2634 -4.8768
        CHANNELS 3 Zrotation Xrotation Yrotation
        JOINT rShldr
        {
          OFFSET -8.77824 -1.95073 1.46304
          CHANNELS 3 Zrotation Xrotation Yrotation
          JOINT rForeArm
          {
            OFFSET -28.1742 -1.7115 0.48768
            CHANNELS 3 Zrotation Xrotation Yrotation
            JOINT rHand
            {
              OFFSET -22.5879 0.773209 7.07136
              CHANNELS 3 Zrotation Xrotation Yrotation
              JOINT rThumb1
              {
                OFFSET -1.2192 -0.487915 3.41376
                CHANNELS 3 Zrotation Xrotation Yrotation
                JOINT rThumb2
                {
                  OFFSET -3.37035 -0.52449 3.41376
                  CHANNELS 3 Zrotation Xrotation Yrotation
                  End Site
                  {
                    OFFSET -1.78271 -1.18214 1.43049
                  }
                }
              }
              JOINT rIndex1
              {
                OFFSET -7.75947 0.938293 5.60832
                CHANNELS 3 Zrotation Xrotation Yrotation
                JOINT rIndex2
                {
                  OFFSET -2.54057 -0.884171 1.56538
                  CHANNELS 3 Zrotation Xrotation Yrotation
                  End Site
                  {
                    OFFSET -1.62519 -0.234802 1.16502
                  }
                }
              }
              JOINT rMid1
              {
                OFFSET -8.24714 1.18213 3.41376
                CHANNELS 3 Zrotation Xrotation Yrotation
                JOINT rMid2
                {
                  OFFSET -3.10165 -0.590103 1.0647
                  CHANNELS 3 Zrotation Xrotation Yrotation
                  End Site
                  {
                    OFFSET -2.48547 -0.328903 0.83742
                  }
                }
              }
              JOINT rRing1
              {
                OFFSET -8.82822 0.546677 1.51678
                CHANNELS 3 Zrotation Xrotation Yrotation
                JOINT rRing2
                {
                  OFFSET -2.60934 -0.819778 -0.0198488
                  CHANNELS 3 Zrotation Xrotation Yrotation
                  End Site
                  {
                    OFFSET -2.33842 -0.294052 0.168128
                  }
                }
              }
              JOINT rPinky1
              {
                OFFSET -8.27202 -0.0477905 -0.4584
                CHANNELS 3 Zrotation Xrotation Yrotation
                JOINT rPinky2
                {
                  OFFSET -1.82734 -0.647385 -0.700984
                  CHANNELS 3 Zrotation Xrotation Yrotation
                  End Site
                  {
                    OFFSET -1.69225 -0.51767 -0.607171
                  }
                }
              }
            }
          }
        }
      }
      JOINT lCollar
      {
        OFFSET 2.68224 19.2634 -4.8768
        CHANNELS 3 Zrotation Xrotation Yrotation
        JOINT lShldr
        {
          OFFSET 8.77824 -1.95073 1.46304
          CHANNELS 3 Zrotation Xrotation Yrotation
          JOINT lForeArm
          {
            OFFSET 28.1742 -1.7115 0.48768
            CHANNELS 3 Zrotation Xrotation Yrotation
            JOINT lHand
            {
              OFFSET 22.5879 0.773209 7.07136
              CHANNELS 3 Zrotation Xrotation Yrotation
              JOINT lThumb1
              {
                OFFSET 1.2192 -0.487915 3.41376
                CHANNELS 3 Zrotation Xrotation Yrotation
                JOINT lThumb2
                {
                  OFFSET 3.37035 -0.52449 3.41376
                  CHANNELS 3 Zrotation Xrotation Yrotation
                  End Site
                  {
                    OFFSET 1.78271 -1.18214 1.43049
                  }
                }
              }
              JOINT lIndex1
              {
                OFFSET 7.75947 0.938293 5.60832
                CHANNELS 3 Zrotation Xrotation Yrotation
                JOINT lIndex2
                {
                  OFFSET 2.54057 -0.884171 1.56538
                  CHANNELS 3 Zrotation Xrotation Yrotation
                  End Site
                  {
                    OFFSET 1.62519 -0.234802 1.16502
                  }
                }
              }
              JOINT lMid1
              {
                OFFSET 8.24714 1.18213 3.41376
                CHANNELS 3 Zrotation Xrotation Yrotation
                JOINT lMid2
                {
                  OFFSET 3.10165 -0.590103 1.0647
                  CHANNELS 3 Zrotation Xrotation Yrotation
                  End Site
                  {
                    OFFSET 2.48547 -0.328903 0.83742
                  }
                }
              }
              JOINT lRing1
              {
                OFFSET 8.82822 0.546677 1.51678
                CHANNELS 3 Zrotation Xrotation Yrotation
                JOINT lRing2
                {
                  OFFSET 2.60934 -0.819778 -0.0198488
                  CHANNELS 3 Zrotation Xrotation Yrotation
                  End Site
                  {
                    OFFSET 2.33842 -0.294052 0.168128
                  }
                }
              }
              JOINT lPinky1
              {
                OFFSET 8.27202 -0.0477905 -0.4584
                CHANNELS 3 Zrotation Xrotation Yrotation
                JOINT lPinky2
                {
                  OFFSET 1.82734 -0.647385 -0.700984
                  CHANNELS 3 Zrotation Xrotation Yrotation
                  End Site
                  {
                    OFFSET 1.69225 -0.51767 -0.607171
                  }
                }
              }
            }
          }
        }
      }
    }
  }
  JOINT rButtock
  {
    OFFSET -8.77824 4.35084 1.2192
    CHANNELS 3 Zrotation Xrotation Yrotation
    JOINT rThigh
    {
      OFFSET 0 -1.70687 -2.19456
      CHANNELS 3 Zrotation Xrotation Yrotation
      JOINT rShin
      {
        OFFSET 0 -36.8199 0.73152
        CHANNELS 3 Zrotation Xrotation Yrotation
        JOINT rFoot
        {
          OFFSET 0.73152 -45.1104 -5.12064
          CHANNELS 3 Zrotation Xrotation Yrotation
          End Site
          {
            OFFSET -1.1221 -3.69964 12.103
          }
        }
      }
    }
  }
  JOINT lButtock
  {
    OFFSET 8.77824 4.35084 1.2192
    CHANNELS 3 Zrotation Xrotation Yrotation
    JOINT lThigh
    {
      OFFSET 0 -1.70687 -2.19456
      CHANNELS 3 Zrotation Xrotation Yrotation
      JOINT lShin
      {
        OFFSET 0 -36.8199 0.73152
        CHANNELS 3 Zrotation Xrotation Yrotation
        JOINT lFoot
        {
          OFFSET -0.73152 -45.1104 -5.12064
          CHANNELS 3 Zrotation Xrotation Yrotation
          End Site
          {
            OFFSET 1.1221 -3.69964 12.103
          }
        }
      }
    }
  }
}
MOTION
Frames:	4
Frame Time:	0.00833333
0.000000 0.000000 0.000000 1.890980 -1.701051 2.997111 -2.662003 -4.997116 1.721362 4.969729 -3.188259 -4.642215 -1.018815 1.288785 4.223530 -2.845518 0.991120 4.020758 -1.215978 1.998107 -0.693556 0.683225 -1.599309 0.907280 -4.887515 -3.860314 0.885524 -1.690259 0.234201 1.570644 1.013929 -0.520161 -3.166778 -0.524876 -2.626343 -0.842118 -4.317671 -3.267309 3.837498 4.975470 0.895750 -1.640827 1.836542 1.369140 -3.907980 -4.789621 -1.582870 2.520714 4.083782 1.816787 -1.608767 1.034853 -0.481288 0.895018 -1.892784 1.214599 -2.269609 -4.989889 -3.602150 3.249819 0.128440 -4.298148 2.405123 3.679358 0.778768 -2.270210 -3.021470 -3.783635 -3.870439 3.894732 -2.255973 4.091392 -0.990257 4.951053 -2.455374 0.163322 -1.777858 1.128019 -3.732659 -0.748643 0.906956 -3.896588 0.478567 -4.958375 2.540449 4.225273 4.792372 3.525597 4.478103 4.497643 -2.108534 -4.648201 -0.763513 1.841022 1.209340 -4.291563 -3.803635 -4.677193 -0.865841 -0.106995 -1.299797 4.176859 2.993568 2.864727 1.447343 1.773199 -3.416333 0.175009 2.569487 0.722254 2.813940 -0.939069 2.489761 1.224315 -2.618756 -1.490948 0.666148 -2.299979 0.454176 2.370109 -2.536767 2.791887 -3.265924 -2.522918 3.116580 3.425915 0.705946 0.943824 -4.841561 -2.044532 -2.523966 2.654379
0.000100 62.185200 0.059200 -3.006630 -88.812038 -2.692594 -2.875957 -1.458912 2.806815 5.836136 3.332250 -56.499346 -7.593614 -7.627080 -122.731678 31.439033 -30.877829 34.160171 56.868969 1.270053 -9.845587 22.446570 -19.067539 -80.479825 -48.226353 -87.297304 -149.081790 -154.537796 32.482973 164.643624 -6.170521 70.698474 174.337917 -179.752335 55.528950 80.188236 7.468167 -11.399000 44.979148 172.581929 13.509364 -87.957306 163.052451 33.728396 -120.298071 -19.156879 34.478415 -78.584059 -51.313006 2.994443 -113.542325 135.135509 -55.829644 112.606308 90.468184 16.586770 -86.299697 1.185174 -27.024169 -14.053297 26.533091 9.748597 -63.505403 -6.527397 -31.083195 -17.874764 79.130242 -39.747528 -169.912789 173.735813 -43.477384 -169.882623 3.601908 47.489115 -167.288290 -173.831734 20.344921 -110.775861 -14.236609 -24.812894 -15.251260 -163.501785 -62.443276 -104.660815 153.204667 11.711641 -87.734948 81.580095 47.745164 -68.333854 -7.500095 -15.861916 -37.180645 90.440850 73.018327 -60.174383 -97.327076 -9.874635 80.437938 157.456435 -51.359560 -177.342947 42.042198 39.205368 97.864863 153.773067 44.925590 149.025164 21.496833 -43.990947 19.284363 -6.987095 56.608856 -9.769876 -0.878839 -12.225845 -6.770319 69.529204 -20.678479 -104.269119 0.579509 -45.804441 -2.004904 -1.386541 52.675649 -6.738465 8.545008 0.267956 74.302052 -8.514668 -71.658871 174.383530
0.649800 58.418200 1.084300 -17.135713 48.708925 -14.829370 9.059670 6.302460 74.462629 -6.768205 5.357028 -60.536594 11.003273 21.859491 117.432580 -24.461107 17.667522 -90.913042 -12.343421 2.262506 -6.529156 9.430387 1.097966 -0.847140 -0.136185 36.083893 5.959268 63.126169 20.425854 4.456044 -5.850076 -28.313608 109.066704 -5.907834 -48.689052 -14.445983 -8.337391 22.158458 -3.212386 178.090439 -55.988480 96.497043 23.146591 -32.801483 0.268969 10.732600 -73.230096 -0.433322 32.171995 -33.700065 15.399098 -1.620181 -23.411503 -5.644825 11.770152 -32.833161 1.230759 168.013227 79.808153 -172.022330 7.372734 52.307438 19.755416 -174.458301 43.170659 -152.250025 144.206652 34.487242 -146.886875 22.284560 32.512746 22.352503 10.831118 -53.419013 81.723963 -139.389466 -40.383950 -130.766795 1.930609 -4.314936 5.513785 -18.455890 -26.499962 0.605109 9.871048 22.033256 -25.820269 166.625385 -42.478289 -128.608575 163.318332 5.703471 -149.342280 17.017077 -23.044604 22.461615 4.644143 15.499063 -12.310135 -141.892628 85.740587 139.139861 116.370373 -72.793443 96.875653 145.893134 -23.025837 97.692757 -75.913408 34.844965 -63.238512 59.692974 44.149971 43.124406 -7.383094 49.840396 -25.912841 -87.013213 -22.221090 2.935079 175.227359 69.296934 8.485265 -138.417248 -0.958547 85.570400 86.022392 6.383170 145.699370 -83.921545 62.818131 158.401193
0.599400 61.611600 1.204800 -20.970900 60.082450 -18.667604 8.021247 4.611569 99.188556 -12.345010 3.740731 -87.201399 -4.336285 18.905350 -88.870546 25.014670 13.159767 122.153998 -22.870042 0.992732 -14.059581 8.544818 -3.942571 -2.532271 7.513118 0.006491 -3.731260 -126.861994 16.051276 -143.554164 -147.109966 -3.401503 -50.224093 132.556268 -88.030826 114.941958 -2.171602 -3.090455 5.266705 -128.645962 12.830323 93.000401 -164.609676 -66.287630 112.747645 -106.951285 -20.661913 98.045669 -10.600103 22.776522 14.775740 -176.383151 -37.445980 155.147401 -13.132511 12.756747 3.136651 -179.139933 -6.609003 -177.154773 -159.644323 -3.998453 -132.301847 -111.339532 8.233364 -126.164738 98.449540 68.505641 -92.383364 -122.339583 22.356164 -175.256652 -1.096571 31.252687 -28.974051 50.103198 79.093781 -39.719196 -160.792829 -24.958483 -71.967674 -150.265204 -30.076720 -94.554435 102.374459 38.374670 -95.754168 6.738727 9.708750 16.206707 13.570355 45.260631 -7.884996 165.930069 7.592303 -105.002397 -12.366721 1.357791 -0.609892 3.031257 33.838387 3.166183 -8.911410 8.572201 -17.720623 -1.978509 0.596476 3.972745 -10.010447 86.118941 -172.370871 57.157548 81.310684 -165.917553 53.753459 2.019410 104.653513 -82.484240 71.213439 -179.202818 -73.344955 66.342894 -68.762776 -175.485018 15.689283 -0.065105 -70.851521 53.595294 -50.502390 -166.575520 66.560806 -127.635876
